<?xml version="1.0" encoding="utf-8"?>
<svg xmlns="http://www.w3.org/2000/svg" style="enable-background:new 0 0 520 520;" version="1.1" viewBox="0 0 520 520" x="0px" y="0px">
<g id="Layer_1">
</g>
<g id="_x31_1_x2C__Books_x2C__education_x2C__library_x2C__study">
	<path d="M473.2,327.8h-9.7c0-3.6,0-209.3,0-213.2c0-5.4-4.3-9.7-9.7-9.7h-77.5c-5.4,0-9.7,4.3-9.7,9.7c0,8.8,0,42.9,0,58.2h-48.5&#xD;&#xA;		c0-9.4,0-68.1,0-77.5c0-5.4-4.3-9.7-9.7-9.7h-77.5c-5.4,0-9.7,4.3-9.7,9.7v29.1h-48.5c0-13.8,0-54,0-67.8c0-5.4-4.3-9.7-9.7-9.7&#xD;&#xA;		H66.2c-5.4,0-9.7,4.3-9.7,9.7c0,17.1,0,259.9,0,271.4h-9.7C25.4,327.8,8,345.2,8,366.6c0,21.4,17.4,38.8,38.8,38.8h9.7v58.2&#xD;&#xA;		c0,5.4,4.3,9.7,9.7,9.7c0.1,0,58.1,0,58.9,0c1.1-0.1,2.3-0.4,3.4-0.9l141-65.8c129.9,69.9,122.4,66.3,125.2,66.6c0.1,0,0.1,0,0.2,0&#xD;&#xA;		c0.9,0.1-2.7,0,59.1,0c5.4,0,9.7-4.3,9.7-9.7v-58.2h9.7c21.4,0,38.8-17.4,38.8-38.8C512,345.2,494.6,327.8,473.2,327.8z&#xD;&#xA;		 M318.2,327.8v-29.1h48.5v29.1H318.2z M240.6,327.8V182.5h58.2v145.4H240.6z M172.8,327.8v-29.1h48.5v29.1H172.8z M75.8,104.9h77.5&#xD;&#xA;		v19.4H75.8V104.9z M298.8,163.1h-58.2v-19.4h58.2V163.1z M444.2,182.5H386v-19.4h58.2V182.5z M386,201.8h58.2v126H386V201.8z&#xD;&#xA;		 M444.2,124.3v19.4H386v-19.4H444.2z M366.6,192.2v87.2h-48.5v-87.2H366.6z M298.8,104.9v19.4h-58.2v-19.4H298.8z M221.2,172.8&#xD;&#xA;		v106.6h-48.5V143.7h48.5V172.8z M153.4,66.2v19.4H75.8V66.2H153.4z M75.8,143.7h77.5v184.2H75.8V143.7z M114.6,453.8H75.8v-48.5&#xD;&#xA;		h38.8V453.8z M226,405.4l-92,42.9v-42.9H226z M386,447.3l-77.9-41.9H386V447.3z M444.2,453.8h-38.8v-48.5h38.8V453.8z M473.2,386&#xD;&#xA;		c-19.9,0-409.2,0-426.5,0c-10.7,0-19.4-8.7-19.4-19.4s8.7-19.4,19.4-19.4c34.4,0,373,0,426.5,0c10.7,0,19.4,8.7,19.4,19.4&#xD;&#xA;		S483.9,386,473.2,386z"/>
</g>
</svg>