<?xml version="1.0" encoding="utf-8"?>
<svg xmlns="http://www.w3.org/2000/svg" style="enable-background:new 0 0 512 512;" version="1.1" viewBox="0 0 512 512" x="0px" y="0px">
<g id="_x32_3_x2C__cards_x2C__playing_cards_x2C__heart__x2C__love_and_romance_x2C__miscellaneous_x2C__valentines_day_x2C__valentine">
	<g>
		<g>
			<path d="M147.488,505.031c-23.677,0-42.862-19.185-42.862-42.862&#xD;&#xA;				c0-17.171,0-391.512,0-412.34c0-23.666,19.185-42.862,42.862-42.862c10.758,0,207.189,0,217.021,0&#xD;&#xA;				c23.677,0,42.862,19.196,42.862,42.862c0,21.582,0,388.087,0,412.34c0,23.677-19.185,42.862-42.862,42.862&#xD;&#xA;				C353.751,505.031,157.32,505.031,147.488,505.031z" id="XMLID_1096_" style="fill:#BB2555;"/>
			<path d="M104.627,217.63v239.591l-62.676-33.953&#xD;&#xA;				c-20.812-11.285-28.538-37.295-17.264-58.107L104.627,217.63z" id="XMLID_1095_" style="fill:#6A789F;"/>
			<path d="M470.047,88.741c20.812,11.274,28.538,37.295,17.264,58.107l-79.94,147.531&#xD;&#xA;				V54.788L470.047,88.741z" id="XMLID_1094_" style="fill:#6A789F;"/>
			<path d="M333.269,402.912c2.745,2.398,5.382,4.655,7.715,6.641&#xD;&#xA;				c6.825,5.805,12.707,10.829,16.808,15.777c4.579,5.523,6.717,10.764,6.717,16.494c0,5.567-1.91,10.699-5.371,14.454&#xD;&#xA;				c-3.505,3.798-8.312,5.892-13.542,5.892c-3.906,0-7.487-1.237-10.645-3.668c-1.584-1.226-3.027-2.734-4.297-4.492&#xD;&#xA;				c-1.27,1.758-2.713,3.266-4.297,4.492c-3.158,2.431-6.738,3.668-10.645,3.668c-5.23,0-10.037-2.094-13.542-5.892&#xD;&#xA;				c-3.461-3.754-5.371-8.887-5.371-14.454c0-5.729,2.138-10.97,6.717-16.494c4.102-4.948,9.994-9.972,16.808-15.777l0.011-0.011&#xD;&#xA;				c2.333-1.986,4.97-4.232,7.704-6.63c0.727-0.629,1.649-0.977,2.615-0.977C331.62,401.935,332.542,402.283,333.269,402.912z" id="XMLID_1093_" style="fill:#EFCFF8;"/>
			<path d="M315.267,205.596c7.205,7.813,11.177,18.501,11.177,30.079&#xD;&#xA;				c0,11.914-4.438,22.82-13.976,34.322c-8.529,10.287-20.78,20.736-34.973,32.824c-4.85,4.134-10.341,8.822-16.049,13.813&#xD;&#xA;				c-1.508,1.313-3.44,2.04-5.447,2.04c-2.007,0-3.939-0.727-5.447-2.051c-5.686-4.97-11.177-9.647-16.016-13.77l-0.033-0.022&#xD;&#xA;				c-14.193-12.099-26.444-22.549-34.973-32.835c-9.538-11.502-13.976-22.407-13.976-34.322c0-11.578,3.971-22.266,11.177-30.079&#xD;&#xA;				c7.292-7.91,17.297-12.262,28.18-12.262c8.138,0,15.582,2.561,22.136,7.639c3.31,2.561,6.315,5.686,8.952,9.343&#xD;&#xA;				c2.648-3.657,5.643-6.782,8.952-9.343c6.554-5.078,13.998-7.639,22.136-7.639C297.971,193.335,307.975,197.686,315.267,205.596z" id="XMLID_1092_" style="fill:#EFCFF8;"/>
			<path d="M209.828,55.732c3.461,3.754,5.371,8.887,5.371,14.454&#xD;&#xA;				c0,5.719-2.138,10.96-6.717,16.494c-4.102,4.948-9.983,9.961-16.808,15.777c-2.333,1.986-4.97,4.232-7.715,6.63&#xD;&#xA;				c-0.727,0.64-1.649,0.987-2.615,0.987s-1.888-0.347-2.615-0.987c-2.734-2.387-5.371-4.633-7.704-6.619l-0.011-0.011&#xD;&#xA;				c-6.825-5.816-12.707-10.829-16.808-15.777c-4.579-5.534-6.717-10.775-6.717-16.494c0-5.567,1.91-10.699,5.371-14.454&#xD;&#xA;				c3.505-3.809,8.312-5.903,13.542-5.903c3.906,0,7.487,1.237,10.645,3.679c1.584,1.226,3.027,2.734,4.297,4.492&#xD;&#xA;				c1.27-1.758,2.713-3.266,4.297-4.492c3.158-2.441,6.739-3.679,10.645-3.679C201.516,49.829,206.323,51.924,209.828,55.732z" id="XMLID_1091_" style="fill:#EFCFF8;"/>
			<path d="M255.999,324.101c-3.324,0-6.53-1.208-9.027-3.4c-5.602-4.896-11.035-9.525-15.833-13.613&#xD;&#xA;				c-0.055-0.042-0.107-0.085-0.156-0.126c-14.371-12.25-26.782-22.83-35.63-33.502c-10.387-12.525-15.225-24.531-15.225-37.785&#xD;&#xA;				c0-12.948,4.479-24.936,12.613-33.757c8.327-9.034,19.752-14.009,32.169-14.009c9.379,0,17.945,2.952,25.459,8.776&#xD;&#xA;				c1.983,1.534,3.865,3.246,5.632,5.121c1.771-1.882,3.653-3.595,5.63-5.125c7.511-5.821,16.077-8.773,25.457-8.773&#xD;&#xA;				c12.417,0,23.842,4.975,32.17,14.01c8.133,8.82,12.612,20.808,12.612,33.756c0,13.253-4.837,25.259-15.225,37.785&#xD;&#xA;				c-8.875,10.704-21.274,21.264-35.632,33.492c-5.279,4.5-10.477,8.942-15.996,13.767&#xD;&#xA;				C262.509,322.903,259.31,324.101,255.999,324.101z M237.901,298.599c0.054,0.042,0.105,0.085,0.154,0.126&#xD;&#xA;				c4.902,4.176,10.382,8.845,16.067,13.814c1.055,0.925,2.718,0.912,3.761,0.005c5.557-4.861,10.783-9.325,16.091-13.851&#xD;&#xA;				c13.976-11.902,26.044-22.18,34.318-32.159c8.683-10.471,12.727-20.276,12.727-30.859c0-10.214-3.459-19.59-9.739-26.401&#xD;&#xA;				c-6.25-6.781-14.841-10.514-24.191-10.514c-6.915,0-13.246,2.187-18.813,6.502c-2.894,2.239-5.544,5.009-7.881,8.236&#xD;&#xA;				c-1.02,1.409-2.655,2.243-4.394,2.243c-0.002,0-0.004,0-0.005,0c-1.742-0.002-3.377-0.839-4.396-2.252&#xD;&#xA;				c-2.31-3.204-4.958-5.971-7.871-8.224c-5.571-4.318-11.901-6.505-18.816-6.505c-9.35,0-17.941,3.733-24.191,10.513&#xD;&#xA;				c-6.281,6.812-9.74,16.188-9.74,26.402c0,10.583,4.044,20.388,12.727,30.859C211.931,276.454,223.965,286.721,237.901,298.599z" id="XMLID_1088_"/>
			<path d="M181.344,115.5c-2.284,0-4.486-0.832-6.201-2.341c-2.699-2.357-5.318-4.587-7.636-6.559&#xD;&#xA;				c-0.03-0.025-0.059-0.051-0.088-0.077c-6.976-5.945-13.001-11.084-17.391-16.379c-5.361-6.481-7.966-13.006-7.966-19.957&#xD;&#xA;				c0-6.931,2.418-13.371,6.808-18.132c4.539-4.932,10.766-7.65,17.531-7.65c5.136,0,9.834,1.619,13.963,4.811&#xD;&#xA;				c0.332,0.256,0.658,0.522,0.979,0.798c0.32-0.274,0.646-0.54,0.977-0.796c4.131-3.194,8.829-4.813,13.965-4.813&#xD;&#xA;				c6.765,0,12.992,2.718,17.534,7.654c4.387,4.758,6.804,11.197,6.804,18.128c0,6.95-2.605,13.477-7.962,19.953&#xD;&#xA;				c-4.407,5.315-10.46,10.474-17.469,16.448c-2.321,1.974-4.939,4.205-7.666,6.586C185.829,114.668,183.627,115.5,181.344,115.5z&#xD;&#xA;				 M174.616,98.401c2.057,1.751,4.345,3.699,6.727,5.769c2.428-2.11,4.74-4.08,6.815-5.845&#xD;&#xA;				c6.621-5.643,12.344-10.519,16.147-15.108c3.78-4.569,5.468-8.589,5.468-13.031c0-4.197-1.397-8.025-3.935-10.776&#xD;&#xA;				c-2.466-2.681-5.858-4.155-9.553-4.155c-2.715,0-5.112,0.832-7.326,2.544c-1.171,0.907-2.254,2.043-3.217,3.376&#xD;&#xA;				c-1.02,1.413-2.656,2.25-4.398,2.25s-3.378-0.836-4.399-2.249c-0.964-1.334-2.047-2.471-3.219-3.378&#xD;&#xA;				c-2.213-1.71-4.61-2.543-7.324-2.543c-3.695,0-7.087,1.474-9.55,4.151c-2.541,2.755-3.938,6.583-3.938,10.78&#xD;&#xA;				c0,4.441,1.688,8.462,5.472,13.035c3.802,4.586,9.523,9.462,16.147,15.107C174.561,98.352,174.589,98.377,174.616,98.401z" id="XMLID_1085_"/>
			<path d="M345.596,467.596c-5.127,0-9.822-1.613-13.955-4.795c-0.335-0.259-0.664-0.527-0.988-0.804&#xD;&#xA;				c-0.32,0.274-0.645,0.539-0.976,0.796c-4.144,3.191-8.84,4.803-13.965,4.803c-6.758,0-12.983-2.713-17.529-7.638&#xD;&#xA;				c-4.392-4.765-6.811-11.204-6.811-18.133c0-6.963,2.606-13.491,7.966-19.957c4.403-5.31,10.425-10.445,17.398-16.385&#xD;&#xA;				c0.028-0.024,0.055-0.049,0.083-0.072c2.04-1.736,4.833-4.114,7.642-6.577c1.74-1.507,3.929-2.324,6.193-2.324&#xD;&#xA;				s4.453,0.817,6.167,2.301c0.005,0.005,0.012,0.011,0.017,0.016c2.727,2.381,5.345,4.623,7.663,6.595&#xD;&#xA;				c6.688,5.687,13.004,11.06,17.469,16.447c5.36,6.463,7.966,12.992,7.966,19.956c0,6.93-2.418,13.37-6.808,18.131&#xD;&#xA;				C358.58,464.883,352.355,467.596,345.596,467.596z M330.654,448.584c1.742,0,3.378,0.837,4.399,2.25&#xD;&#xA;				c0.962,1.333,2.045,2.469,3.219,3.377c2.21,1.702,4.611,2.534,7.324,2.534c3.694,0,7.087-1.473,9.554-4.147&#xD;&#xA;				c2.536-2.75,3.934-6.577,3.934-10.774c0-4.452-1.686-8.47-5.468-13.031c-3.863-4.66-9.83-9.735-16.146-15.108&#xD;&#xA;				c-2.079-1.769-4.394-3.75-6.815-5.855c-2.488,2.17-4.902,4.225-6.733,5.783c-0.026,0.024-0.053,0.048-0.079,0.07&#xD;&#xA;				c-6.618,5.636-12.334,10.506-16.149,15.109c-3.782,4.563-5.469,8.581-5.469,13.032c0,4.196,1.398,8.023,3.936,10.776&#xD;&#xA;				c2.466,2.671,5.859,4.144,9.553,4.144c2.714,0,5.113-0.832,7.335-2.542c1.162-0.9,2.245-2.036,3.208-3.369&#xD;&#xA;				C327.276,449.421,328.912,448.584,330.654,448.584z" id="XMLID_1082_"/>
			<path d="M407.366,299.806c-0.872,0-1.758-0.211-2.579-0.656c-2.634-1.428-3.613-4.721-2.186-7.355&#xD;&#xA;				l79.94-147.531c9.834-18.153,3.07-40.921-15.078-50.752l-62.675-33.953c-2.634-1.427-3.613-4.72-2.186-7.355&#xD;&#xA;				c1.427-2.633,4.72-3.613,7.355-2.186l62.675,33.953c23.408,12.681,32.134,42.048,19.45,65.462l-79.94,147.531&#xD;&#xA;				C411.16,298.777,409.293,299.806,407.366,299.806z" id="XMLID_1081_"/>
			<path d="M104.622,462.648c-0.873,0-1.758-0.211-2.58-0.656l-62.675-33.953&#xD;&#xA;				c-23.405-12.691-32.13-42.056-19.45-65.462l79.94-147.531c1.427-2.634,4.721-3.613,7.355-2.186&#xD;&#xA;				c2.635,1.427,3.613,4.721,2.186,7.355l-79.94,147.531c-9.83,18.147-3.066,40.915,15.08,50.753l62.674,33.952&#xD;&#xA;				c2.634,1.427,3.613,4.72,2.186,7.355C108.415,461.619,106.549,462.648,104.622,462.648z" id="XMLID_1080_"/>
			<path d="M364.509,510.457H147.488c-26.626,0-48.287-21.662-48.287-48.287V49.83&#xD;&#xA;				c0-26.625,21.661-48.287,48.287-48.287h217.021c26.625,0,48.287,21.662,48.287,48.287v412.34&#xD;&#xA;				C412.797,488.796,391.135,510.457,364.509,510.457z M147.488,12.394c-20.642,0-37.436,16.794-37.436,37.436v412.34&#xD;&#xA;				c0,20.642,16.794,37.436,37.436,37.436h217.021c20.642,0,37.436-16.794,37.436-37.436V49.83&#xD;&#xA;				c0-20.642-16.794-37.436-37.436-37.436H147.488z" id="XMLID_1077_"/>
			<path d="M169.19,511c-2.996,0-5.426-2.429-5.426-5.426V397.064c0-2.997,2.429-5.426,5.426-5.426&#xD;&#xA;				s5.426,2.429,5.426,5.426v108.511C174.616,508.571,172.187,511,169.19,511z" id="XMLID_1076_"/>
			<path d="M342.807,66.106c-2.997,0-5.426-2.429-5.426-5.426V6.426c0-2.997,2.429-5.426,5.426-5.426&#xD;&#xA;				s5.426,2.429,5.426,5.426v54.255C348.233,63.678,345.804,66.106,342.807,66.106z" id="XMLID_1075_"/>
			<path d="M342.807,120.362c-2.997,0-5.426-2.429-5.426-5.426V93.234c0-2.997,2.429-5.426,5.426-5.426&#xD;&#xA;				s5.426,2.429,5.426,5.426v21.702C348.233,117.933,345.804,120.362,342.807,120.362z" id="XMLID_1074_"/>
		</g>
	</g>
</g>
<g id="Layer_1">
</g>
</svg>