<?xml version="1.0" encoding="utf-8"?>
<svg xmlns="http://www.w3.org/2000/svg" style="enable-background:new 0 0 512 512;" version="1.1" viewBox="0 0 512 512" x="0px" y="0px">
<g id="_x31_8_x2C__dark_mode_x2C__sleep_mode_x2C__night_mode_x2C__moon_x2C__button_x2C__interface">
	<g>
		<path d="M256,1C115.049,1,1,115.068,1,256c0,140.951,114.068,255,255,255c140.951,0,255-114.068,255-255&#xD;&#xA;			C511,115.049,396.932,1,256,1z M256,481C131.935,481,31,380.065,31,256S131.935,31,256,31s225,100.935,225,225&#xD;&#xA;			S380.065,481,256,481z"/>
		<path d="M351.588,390.502c-20.172,14.369-43.711,24.125-68.071,28.215c-8.17,1.371-13.682,9.106-12.31,17.276&#xD;&#xA;			c1.375,8.194,9.127,13.674,17.276,12.31c28.817-4.838,56.657-16.376,80.509-33.365c6.748-4.807,8.321-14.173,3.516-20.92&#xD;&#xA;			C367.701,387.271,358.334,385.695,351.588,390.502z"/>
		<path d="M435.992,271.207c-8.184-1.375-15.905,4.142-17.275,12.311c-4.146,24.705-13.639,47.607-28.215,68.07&#xD;&#xA;			c-4.806,6.747-3.232,16.113,3.516,20.92c6.736,4.799,16.106,3.242,20.92-3.516c16.992-23.855,28.529-51.695,33.365-80.51&#xD;&#xA;			C449.674,280.313,444.162,272.578,435.992,271.207z"/>
		<path d="M418.717,228.483c1.375,8.194,9.127,13.674,17.276,12.31c8.17-1.371,13.682-9.106,12.31-17.276&#xD;&#xA;			c-4.838-28.817-16.376-56.657-33.365-80.509c-4.807-6.748-14.174-8.322-20.92-3.516c-6.748,4.807-8.321,14.173-3.516,20.92&#xD;&#xA;			C404.871,180.584,414.627,204.123,418.717,228.483z"/>
		<path d="M283.517,93.283c24.36,4.09,47.899,13.846,68.071,28.215c6.736,4.799,16.106,3.242,20.92-3.516&#xD;&#xA;			c4.806-6.747,3.232-16.113-3.516-20.92c-23.852-16.989-51.691-28.527-80.509-33.365c-8.183-1.382-15.905,4.141-17.276,12.31&#xD;&#xA;			C269.835,84.177,275.347,91.912,283.517,93.283z"/>
		<path d="M160.412,121.498c20.172-14.369,43.711-24.125,68.071-28.215c8.17-1.371,13.682-9.106,12.31-17.276&#xD;&#xA;			c-1.371-8.17-9.113-13.684-17.276-12.31c-28.817,4.838-56.657,16.376-80.509,33.365c-6.748,4.807-8.321,14.173-3.516,20.92&#xD;&#xA;			C144.309,124.745,153.681,126.294,160.412,121.498z"/>
		<path d="M228.483,418.717c-24.36-4.09-47.899-13.846-68.071-28.215c-6.745-4.806-16.112-3.233-20.92,3.516&#xD;&#xA;			c-4.806,6.747-3.232,16.113,3.516,20.92c23.852,16.989,51.691,28.527,80.509,33.365c8.116,1.367,15.897-4.092,17.276-12.31&#xD;&#xA;			C242.165,427.823,236.653,420.088,228.483,418.717z"/>
		<path d="M93.283,283.517c-1.371-8.171-9.111-13.677-17.276-12.31c-8.17,1.371-13.682,9.106-12.31,17.276&#xD;&#xA;			c4.838,28.817,16.376,56.657,33.365,80.509c2.927,4.108,7.544,6.299,12.23,6.299c12.007,0,19.335-13.692,12.205-23.703&#xD;&#xA;			C107.129,331.416,97.373,307.877,93.283,283.517z"/>
		<path d="M78.508,241.002c7.193,0,13.546-5.19,14.775-12.52c4.146-24.705,13.639-47.607,28.215-68.07&#xD;&#xA;			c4.806-6.747,3.232-16.113-3.516-20.92c-6.744-4.805-16.112-3.233-20.92,3.516c-16.992,23.855-28.529,51.695-33.365,80.51&#xD;&#xA;			C62.163,232.657,69.207,241.002,78.508,241.002z"/>
		<path d="M364.501,271.829C350.04,281.1,333.269,286,316,286c-49.626,0-90-40.374-90-90c0-17.269,4.9-34.04,14.171-48.501&#xD;&#xA;			c7.287-11.367-3.054-25.863-16.173-22.671C164.068,139.405,121,193.373,121,256c0,74.439,60.561,135,135,135&#xD;&#xA;			c62.667,0,116.605-43.11,131.172-102.998C390.364,274.882,375.869,264.543,364.501,271.829z M256,361&#xD;&#xA;			c-57.897,0-105-47.103-105-105c0-36.758,18.844-69.716,48.427-88.556c-21.304,87.256,57.644,166.49,145.129,145.129&#xD;&#xA;			C325.716,342.156,292.758,361,256,361z"/>
	</g>
</g>
<g id="Layer_1">
</g>
</svg>