<?xml version="1.0" encoding="utf-8"?>
<svg xmlns="http://www.w3.org/2000/svg" style="enable-background:new 0 0 512 512;" version="1.1" viewBox="0 0 512 512" x="0px" y="0px">
<g id="_x34_5_x2C__Github">
	<g>
		<circle cx="256" cy="256" r="255" style="fill:#86CAFD;"/>
		<path d="M132.984,376.839c39.855,20.191,74.033,6.022,75.456,5.734c0,0-2.861-17.218,10.909-29.269&#xD;&#xA;			c0,0-90.116-1.43-93.551-93.838c0,0-0.574-39.029,22.392-62.556c0,0-5.344-17.583-3.118-37.766&#xD;&#xA;			c1.128-10.233,10.818-17.342,20.892-15.22c10.656,2.245,25.083,7.675,39.803,20.46c0,0,19.907-8.414,50.506-8.414&#xD;&#xA;			c30.614,0,54.73,8.803,54.73,8.803s12.538-12.547,37.841-19.279c10.332-2.749,20.673,4.518,21.735,15.157&#xD;&#xA;			c0.9,9.012,0.754,20.977-2.574,35.11c0,0,21.802,20.66,21.802,58.92s-12.993,91.445-94.125,97.955c0,0,13.769,18.369,13.769,34.43&#xD;&#xA;			c0,24.83-0.953,61.366-0.601,63.415c1.175,6.847,8.337,10.931,14.918,8.709c82.638-27.897,142.087-106.145,141.811-198.263&#xD;&#xA;			C465.233,145.702,372.254,53.039,257.03,53.041C141.879,53.042,48.503,146.406,48.503,261.565&#xD;&#xA;			c0,93.966,62.161,173.411,147.591,199.476c0,0,5.081,1.315,8.253-3.251c1.043-1.501,1.521-3.324,1.521-5.152l0-39.364&#xD;&#xA;			c0,0-28.128,4.303-41.048-0.568C151.913,407.825,142.743,400.654,132.984,376.839" style="fill:#FFFFFF;"/>
	</g>
</g>
<g id="Layer_1">
</g>
</svg>