<?xml version="1.0" encoding="utf-8"?>
<svg xmlns="http://www.w3.org/2000/svg" style="enable-background:new 0 0 512 512;" version="1.1" viewBox="0 0 512 512" x="0px" y="0px">
<g id="_x34_7_x2C__play_button_x2C__Movie_x2C__arrow_x2C__play_x2C__video_icon">
	<g>
		<g>
			<path d="M436.272,75.728c-99.645-99.645-260.912-99.631-360.543,0c-99.645,99.645-99.631,260.912,0,360.543&#xD;&#xA;				c99.645,99.645,260.912,99.631,360.543,0C535.916,336.627,535.903,175.359,436.272,75.728z M256,489.697&#xD;&#xA;				C127.139,489.697,22.303,384.861,22.303,256S127.139,22.302,256,22.302S489.698,127.139,489.698,256S384.861,489.697,256,489.697&#xD;&#xA;				z"/>
			<path d="M345.732,246.499L218.26,182.763c-7.063-3.53-15.373,1.621-15.373,9.501v127.471c0,7.894,8.324,13.026,15.373,9.501&#xD;&#xA;				l127.471-63.736c3.599-1.799,5.872-5.478,5.872-9.501C351.604,251.977,349.33,248.298,345.732,246.499z M224.132,302.548v-93.096&#xD;&#xA;				L317.228,256L224.132,302.548z"/>
		</g>
	</g>
</g>
<g id="Layer_1">
</g>
</svg>