<?xml version="1.0" encoding="utf-8"?>
<svg xmlns="http://www.w3.org/2000/svg" style="enable-background:new 0 0 512 512;" version="1.1" viewBox="0 0 512 512" x="0px" y="0px">
<g id="_x33_8_x2C__About_x2C__info_x2C__information_x2C__service_x2C__sign">
	<g>
		<g>
			<path d="M436.272,75.728c-99.645-99.645-260.912-99.631-360.543,0c-99.645,99.645-99.631,260.912,0,360.543&#xD;&#xA;				c99.645,99.645,260.912,99.631,360.543,0C535.916,336.627,535.903,175.359,436.272,75.728z M256,489.697&#xD;&#xA;				C127.139,489.697,22.303,384.861,22.303,256S127.139,22.302,256,22.302S489.698,127.139,489.698,256S384.861,489.697,256,489.697&#xD;&#xA;				z"/>
			<path d="M256,181.642c-23.429,0-42.49,19.061-42.49,42.49v159.339c0,23.429,19.061,42.49,42.49,42.49s42.49-19.061,42.49-42.49&#xD;&#xA;				V224.132C298.49,200.703,279.429,181.642,256,181.642z M277.245,383.471c0,11.714-9.531,21.245-21.245,21.245&#xD;&#xA;				c-11.714,0-21.245-9.531-21.245-21.245V224.132c0-11.714,9.531-21.245,21.245-21.245c11.714,0,21.245,9.531,21.245,21.245&#xD;&#xA;				V383.471z"/>
			<path d="M256,75.416c-23.429,0-42.49,19.061-42.49,42.49c0,23.429,19.061,42.49,42.49,42.49s42.49-19.061,42.49-42.49&#xD;&#xA;				C298.49,94.477,279.429,75.416,256,75.416z M256,139.151c-11.714,0-21.245-9.531-21.245-21.245&#xD;&#xA;				c0-11.714,9.531-21.245,21.245-21.245c11.714,0,21.245,9.531,21.245,21.245C277.245,129.62,267.714,139.151,256,139.151z"/>
		</g>
	</g>
</g>
<g id="Layer_1">
</g>
</svg>