<?xml version="1.0" encoding="utf-8"?>
<svg xmlns="http://www.w3.org/2000/svg" style="enable-background:new 0 0 512 512;" version="1.1" viewBox="0 0 512 512" x="0px" y="0px">
<g id="_x34_1_x2C__graph_x2C__bar_graph_x2C__line_graph_x2C__bar_chart_x2C__chart">
	<g>
		<g>
			<path d="M54.125,511c-5.868,0-10.625-4.757-10.625-10.625V11.625C43.5,5.757,48.257,1,54.125,1&#xD;&#xA;				C59.993,1,64.75,5.757,64.75,11.625v488.75C64.75,506.243,59.993,511,54.125,511z"/>
			<path d="M500.375,468.5H11.625C5.757,468.5,1,463.743,1,457.875s4.757-10.625,10.625-10.625h488.75&#xD;&#xA;				c5.868,0,10.625,4.757,10.625,10.625S506.243,468.5,500.375,468.5z"/>
			<path d="M54.125,43.5h-21.25c-5.868,0-10.625-4.757-10.625-10.625S27.007,22.25,32.875,22.25h21.25&#xD;&#xA;				c5.868,0,10.625,4.757,10.625,10.625S59.993,43.5,54.125,43.5z"/>
			<path d="M54.125,96.625h-21.25c-5.868,0-10.625-4.757-10.625-10.625s4.757-10.625,10.625-10.625h21.25&#xD;&#xA;				c5.868,0,10.625,4.757,10.625,10.625S59.993,96.625,54.125,96.625z"/>
			<path d="M54.125,149.75h-21.25c-5.868,0-10.625-4.757-10.625-10.625S27.007,128.5,32.875,128.5h21.25&#xD;&#xA;				c5.868,0,10.625,4.757,10.625,10.625S59.993,149.75,54.125,149.75z"/>
			<path d="M54.125,202.875h-21.25c-5.868,0-10.625-4.757-10.625-10.625s4.757-10.625,10.625-10.625h21.25&#xD;&#xA;				c5.868,0,10.625,4.757,10.625,10.625S59.993,202.875,54.125,202.875z"/>
			<path d="M54.125,256h-21.25c-5.868,0-10.625-4.757-10.625-10.625s4.757-10.625,10.625-10.625h21.25&#xD;&#xA;				c5.868,0,10.625,4.757,10.625,10.625S59.993,256,54.125,256z"/>
			<path d="M54.125,309.125h-21.25c-5.868,0-10.625-4.757-10.625-10.625s4.757-10.625,10.625-10.625h21.25&#xD;&#xA;				c5.868,0,10.625,4.757,10.625,10.625S59.993,309.125,54.125,309.125z"/>
			<path d="M54.125,362.25h-21.25c-5.868,0-10.625-4.757-10.625-10.625S27.007,341,32.875,341h21.25&#xD;&#xA;				c5.868,0,10.625,4.757,10.625,10.625S59.993,362.25,54.125,362.25z"/>
			<path d="M54.125,415.375h-21.25c-5.868,0-10.625-4.757-10.625-10.625s4.757-10.625,10.625-10.625h21.25&#xD;&#xA;				c5.868,0,10.625,4.757,10.625,10.625S59.993,415.375,54.125,415.375z"/>
			<path d="M479.125,489.75c-5.868,0-10.625-4.757-10.625-10.625v-21.25c0-5.868,4.757-10.625,10.625-10.625&#xD;&#xA;				s10.625,4.757,10.625,10.625v21.25C489.75,484.993,484.993,489.75,479.125,489.75z"/>
			<path d="M426,489.75c-5.868,0-10.625-4.757-10.625-10.625v-21.25c0-5.868,4.757-10.625,10.625-10.625s10.625,4.757,10.625,10.625&#xD;&#xA;				v21.25C436.625,484.993,431.868,489.75,426,489.75z"/>
			<path d="M372.875,489.75c-5.868,0-10.625-4.757-10.625-10.625v-21.25c0-5.868,4.757-10.625,10.625-10.625&#xD;&#xA;				s10.625,4.757,10.625,10.625v21.25C383.5,484.993,378.743,489.75,372.875,489.75z"/>
			<path d="M319.75,489.75c-5.868,0-10.625-4.757-10.625-10.625v-21.25c0-5.868,4.757-10.625,10.625-10.625&#xD;&#xA;				s10.625,4.757,10.625,10.625v21.25C330.375,484.993,325.618,489.75,319.75,489.75z"/>
			<path d="M266.625,489.75c-5.868,0-10.625-4.757-10.625-10.625v-21.25c0-5.868,4.757-10.625,10.625-10.625&#xD;&#xA;				s10.625,4.757,10.625,10.625v21.25C277.25,484.993,272.493,489.75,266.625,489.75z"/>
			<path d="M213.5,489.75c-5.868,0-10.625-4.757-10.625-10.625v-21.25c0-5.868,4.757-10.625,10.625-10.625&#xD;&#xA;				c5.868,0,10.625,4.757,10.625,10.625v21.25C224.125,484.993,219.368,489.75,213.5,489.75z"/>
			<path d="M160.375,489.75c-5.868,0-10.625-4.757-10.625-10.625v-21.25c0-5.868,4.757-10.625,10.625-10.625&#xD;&#xA;				c5.868,0,10.625,4.757,10.625,10.625v21.25C171,484.993,166.243,489.75,160.375,489.75z"/>
			<path d="M107.25,489.75c-5.868,0-10.625-4.757-10.625-10.625v-21.25c0-5.868,4.757-10.625,10.625-10.625&#xD;&#xA;				c5.868,0,10.625,4.757,10.625,10.625v21.25C117.875,484.993,113.118,489.75,107.25,489.75z"/>
			<path d="M287.875,171H96.625C90.757,171,86,166.243,86,160.375v-127.5c0-5.868,4.757-10.625,10.625-10.625h191.25&#xD;&#xA;				c5.868,0,10.625,4.757,10.625,10.625v127.5C298.5,166.243,293.743,171,287.875,171z M107.25,149.75h170V43.5h-170V149.75z"/>
			<path d="M245.375,86h-106.25c-5.868,0-10.625-4.757-10.625-10.625s4.757-10.625,10.625-10.625h106.25&#xD;&#xA;				c5.868,0,10.625,4.757,10.625,10.625S251.243,86,245.375,86z"/>
			<path d="M171,128.5h-31.875c-5.868,0-10.625-4.757-10.625-10.625s4.757-10.625,10.625-10.625H171&#xD;&#xA;				c5.868,0,10.625,4.757,10.625,10.625S176.868,128.5,171,128.5z"/>
			<path d="M128.5,404.75c-23.435,0-42.5-19.066-42.5-42.5s19.065-42.5,42.5-42.5s42.5,19.066,42.5,42.5&#xD;&#xA;				S151.935,404.75,128.5,404.75z M128.5,341c-11.717,0-21.25,9.532-21.25,21.25s9.533,21.25,21.25,21.25&#xD;&#xA;				c11.717,0,21.25-9.532,21.25-21.25S140.217,341,128.5,341z"/>
			<path d="M234.75,298.5c-23.435,0-42.5-19.066-42.5-42.5c0-23.435,19.065-42.5,42.5-42.5s42.5,19.065,42.5,42.5&#xD;&#xA;				C277.25,279.434,258.185,298.5,234.75,298.5z M234.75,234.75c-11.717,0-21.25,9.533-21.25,21.25s9.533,21.25,21.25,21.25&#xD;&#xA;				S256,267.717,256,256S246.467,234.75,234.75,234.75z"/>
			<path d="M341,404.75c-23.435,0-42.5-19.066-42.5-42.5s19.065-42.5,42.5-42.5s42.5,19.066,42.5,42.5S364.435,404.75,341,404.75z&#xD;&#xA;				 M341,341c-11.717,0-21.25,9.532-21.25,21.25s9.533,21.25,21.25,21.25s21.25-9.532,21.25-21.25S352.717,341,341,341z"/>
			<path d="M447.25,298.5c-23.435,0-42.5-19.066-42.5-42.5c0-23.435,19.065-42.5,42.5-42.5s42.5,19.065,42.5,42.5&#xD;&#xA;				C489.75,279.434,470.685,298.5,447.25,298.5z M447.25,234.75c-11.717,0-21.25,9.533-21.25,21.25s9.533,21.25,21.25,21.25&#xD;&#xA;				s21.25-9.533,21.25-21.25S458.967,234.75,447.25,234.75z"/>
			<path d="M356.022,347.228c-4.149-4.149-4.149-10.877,0-15.026l61.179-61.179c4.149-4.148,10.877-4.148,15.027,0&#xD;&#xA;				c4.149,4.149,4.149,10.877,0,15.027l-61.179,61.179C366.898,351.377,360.172,351.376,356.022,347.228z"/>
			<path d="M310.951,347.228l-61.179-61.179c-4.149-4.149-4.149-10.877,0-15.027c4.149-4.148,10.877-4.148,15.026,0l61.179,61.179&#xD;&#xA;				c4.149,4.149,4.149,10.877,0,15.026C321.827,351.377,315.101,351.376,310.951,347.228z"/>
			<path d="M151.036,350.339c-2.719,0-5.439-1.038-7.513-3.112c-4.149-4.149-4.149-10.877,0-15.026l61.179-61.179&#xD;&#xA;				c4.149-4.148,10.877-4.148,15.027,0c4.149,4.149,4.149,10.877,0,15.027l-61.179,61.179&#xD;&#xA;				C156.474,349.302,153.755,350.339,151.036,350.339z"/>
		</g>
	</g>
</g>
<g id="Layer_1">
</g>
</svg>