<?xml version="1.0" encoding="utf-8"?>
<svg xmlns="http://www.w3.org/2000/svg" style="enable-background:new 0 0 512 512;" version="1.1" viewBox="0 0 512 512" x="0px" y="0px">
<g id="_x36_7_x2C__LinkedIn_x2C__logo_x2C__brands_and_logotypes_x2C__brands_x2C__logos_x2C__logotype_x2C__social_network_x2C__social_media">
	<g>
		<g>
			<path d="M436,506H76c-38.66,0-70-31.34-70-70V76C6,37.34,37.34,6,76,6h360c38.66,0,70,31.34,70,70v360&#xD;&#xA;				C506,474.66,474.66,506,436,506z" style="fill:#FFFFFF;"/>
			<path d="M436,511H76c-41.355,0-75-33.645-75-75V76C1,34.645,34.645,1,76,1h360c41.355,0,75,33.645,75,75v360&#xD;&#xA;				C511,477.355,477.355,511,436,511z M76,11c-35.841,0-65,29.159-65,65v360c0,35.841,29.159,65,65,65h360c35.841,0,65-29.159,65-65&#xD;&#xA;				V76c0-35.841-29.159-65-65-65H76z"/>
			<path d="M106,259.077v146.918h70.008c0-5.934,0-196.081,0-199.993H106V259.077z" id="XMLID_28_" style="fill:#3863DB;"/>
			<path d="M141.009,106.005c-19.331,0-35.009,15.671-35.009,34.999&#xD;&#xA;				c0,19.331,15.678,34.997,35.009,34.997s34.999-15.666,34.999-34.997C176.008,121.675,160.339,106.005,141.009,106.005z" id="XMLID_27_" style="fill:#3863DB;"/>
			<path d="M331.449,206.003c-30.227,0-50.527,11.227-58.825,26.987h-0.863v-26.987h-55.754&#xD;&#xA;				c0,24.777,0,172.724,0,199.993h58.278v-99.122c0-26.148,4.938-51.452,37.271-51.452c31.862,0,34.425,29.885,34.425,53.136v97.438&#xD;&#xA;				h60.01V296.095H406C406,238.005,391.404,206.003,331.449,206.003z" id="XMLID_26_" style="fill:#3863DB;"/>
			<path d="M176.008,410.995H106c-2.762,0-5-2.238-5-5V206.003c0-2.762,2.238-5,5-5h70.008c2.762,0,5,2.238,5,5v199.992&#xD;&#xA;				C181.008,408.757,178.77,410.995,176.008,410.995z M111,400.995h60.008V211.003H111V400.995z"/>
			<path d="M141.009,181.001c-22.061,0-40.009-17.942-40.009-39.997c0-22.056,17.948-39.999,40.009-39.999&#xD;&#xA;				c22.056,0,39.999,17.943,39.999,39.999C181.008,163.059,163.064,181.001,141.009,181.001z M141.009,111.005&#xD;&#xA;				c-16.547,0-30.009,13.457-30.009,29.999c0,16.54,13.462,29.997,30.009,29.997c16.542,0,29.999-13.457,29.999-29.997&#xD;&#xA;				C171.008,124.462,157.551,111.005,141.009,111.005z"/>
			<path d="M405.991,410.995H345.98c-2.762,0-5-2.238-5-5v-97.438c0-28.893-5.004-48.136-29.425-48.136&#xD;&#xA;				c-23.223,0-32.271,13.023-32.271,46.451v99.122c0,2.762-2.238,5-5,5h-58.278c-2.762,0-5-2.238-5-5V206.003c0-2.762,2.238-5,5-5&#xD;&#xA;				h55.754c2.762,0,5,2.238,5,5v13.251c12.034-11.735,31.186-18.251,54.688-18.251c48.209,0,72.258,20.288,77.978,65.781&#xD;&#xA;				c0,0.001,0,0.001,0,0.001c2.609,20.793,1.166,36.16,1.564,139.21C410.991,408.757,408.753,410.995,405.991,410.995z&#xD;&#xA;				 M350.98,400.995h50.011c-0.382-97.553,0.993-113.213-1.486-132.963l0,0c-5.093-40.507-24.81-57.029-68.056-57.029&#xD;&#xA;				c-26.046,0-46.383,9.09-54.4,24.315c-0.864,1.643-2.567,2.671-4.424,2.671h-0.864c-2.762,0-5-2.238-5-5v-21.986h-45.754v189.992&#xD;&#xA;				h48.278v-94.122c0-15.439,0-56.451,42.271-56.451c39.425,0,39.425,40.739,39.425,58.136V400.995z"/>
		</g>
	</g>
</g>
<g id="Layer_1">
</g>
</svg>