<?xml version="1.0" encoding="utf-8"?>
<svg xmlns="http://www.w3.org/2000/svg" style="enable-background:new 0 0 512 512;" version="1.1" viewBox="0 0 512 512" x="0px" y="0px">
<g id="_x30_2_x2C__sun_x2C__summer_x2C__Cloud_x2C__warm_x2C__weather">
	<g id="XMLID_742_">
		<g id="XMLID_743_">
			<g id="XMLID_780_">
				<path d="M256,426c-93.738,0-170-76.262-170-170S162.262,86,256,86s170,76.262,170,170S349.738,426,256,426z&#xD;&#xA;					 M256,106c-82.71,0-150,67.29-150,150c0,82.71,67.29,150,150,150s150-67.29,150-150C406,173.29,338.71,106,256,106z" id="XMLID_781_"/>
			</g>
			<g id="XMLID_776_">
				<path d="M256,369.529c-62.601,0-113.529-50.929-113.529-113.529c0-62.6,50.929-113.529,113.529-113.529&#xD;&#xA;					S369.529,193.4,369.529,256C369.529,318.601,318.601,369.529,256,369.529z M256,162.471c-51.572,0-93.529,41.957-93.529,93.529&#xD;&#xA;					s41.957,93.529,93.529,93.529s93.529-41.957,93.529-93.529S307.572,162.471,256,162.471z" id="XMLID_777_"/>
			</g>
			<g id="XMLID_774_">
				<path d="M256,106c-5.522,0-10-4.477-10-10V26c0-5.523,4.478-10,10-10s10,4.477,10,10v70&#xD;&#xA;					C266,101.523,261.522,106,256,106z" id="XMLID_34_"/>
			</g>
			<g id="XMLID_772_">
				<path d="M170.224,75.051l-11.48-27.716c-2.113-5.102,0.31-10.952,5.412-13.065&#xD;&#xA;					c5.104-2.113,10.952,0.309,13.066,5.412l11.48,27.716c2.113,5.102-0.31,10.952-5.412,13.065&#xD;&#xA;					C178.177,82.581,172.333,80.142,170.224,75.051z" id="XMLID_33_"/>
			</g>
			<g id="XMLID_770_">
				<path d="M67.396,188.702l-27.716-11.48c-5.103-2.114-7.525-7.963-5.411-13.066&#xD;&#xA;					c2.113-5.102,7.962-7.524,13.065-5.412l27.716,11.48c5.103,2.114,7.525,7.963,5.412,13.066&#xD;&#xA;					C78.352,188.385,72.506,190.819,67.396,188.702z" id="XMLID_32_"/>
			</g>
			<g id="XMLID_768_">
				<path d="M34.27,347.845c-2.114-5.103,0.309-10.952,5.411-13.065l27.716-11.48&#xD;&#xA;					c5.104-2.114,10.952,0.309,13.066,5.411c2.113,5.103-0.31,10.952-5.412,13.065l-27.716,11.48&#xD;&#xA;					C42.194,355.385,36.367,352.91,34.27,347.845z" id="XMLID_31_"/>
			</g>
			<g id="XMLID_766_">
				<path d="M164.155,477.731c-5.103-2.114-7.525-7.964-5.411-13.066l11.48-27.716&#xD;&#xA;					c2.114-5.102,7.963-7.523,13.065-5.411c5.103,2.113,7.525,7.963,5.411,13.065l-11.48,27.716&#xD;&#xA;					C175.126,477.377,169.305,479.86,164.155,477.731z" id="XMLID_30_"/>
			</g>
			<g id="XMLID_764_">
				<path d="M334.778,472.319l-11.48-27.716c-2.114-5.103,0.309-10.952,5.411-13.065&#xD;&#xA;					c5.104-2.113,10.952,0.31,13.065,5.411l11.48,27.716c2.114,5.103-0.309,10.952-5.411,13.066&#xD;&#xA;					C342.686,479.864,336.87,477.371,334.778,472.319z" id="XMLID_29_"/>
			</g>
			<g id="XMLID_762_">
				<path d="M464.665,353.257l-27.717-11.48c-5.103-2.114-7.525-7.964-5.412-13.066&#xD;&#xA;					c2.115-5.102,7.964-7.521,13.066-5.412l27.717,11.48c5.103,2.114,7.525,7.964,5.412,13.066&#xD;&#xA;					C475.635,352.903,469.815,355.386,464.665,353.257z" id="XMLID_28_"/>
			</g>
			<g id="XMLID_760_">
				<path d="M431.536,183.29c-2.113-5.103,0.31-10.952,5.412-13.065l27.717-11.48&#xD;&#xA;					c5.104-2.113,10.951,0.309,13.066,5.412c2.113,5.103-0.31,10.952-5.412,13.065l-27.717,11.48&#xD;&#xA;					C439.489,190.82,433.646,188.382,431.536,183.29z" id="XMLID_27_"/>
			</g>
			<g id="XMLID_758_">
				<path d="M328.709,80.463c-5.103-2.113-7.525-7.963-5.412-13.065l11.48-27.716&#xD;&#xA;					c2.115-5.103,7.964-7.524,13.066-5.412c5.103,2.113,7.525,7.963,5.412,13.065l-11.48,27.716&#xD;&#xA;					C339.664,80.145,333.819,82.579,328.709,80.463z" id="XMLID_26_"/>
			</g>
			<g id="XMLID_756_">
				<path d="M135.791,149.934l-49.497-49.498c-3.905-3.905-3.905-10.237,0-14.142c3.908-3.904,10.238-3.905,14.143,0&#xD;&#xA;					l49.497,49.498c3.905,3.905,3.905,10.237,0,14.142C146.027,153.838,139.697,153.84,135.791,149.934z" id="XMLID_25_"/>
			</g>
			<g id="XMLID_754_">
				<path d="M96,266H26c-5.522,0-10-4.477-10-10s4.478-10,10-10h70c5.522,0,10,4.477,10,10S101.522,266,96,266z" id="XMLID_24_"/>
			</g>
			<g id="XMLID_752_">
				<path d="M86.294,425.706c-3.905-3.905-3.905-10.237,0-14.143l49.497-49.498c3.906-3.904,10.236-3.904,14.143,0&#xD;&#xA;					c3.905,3.905,3.905,10.237,0,14.143l-49.497,49.498C96.529,429.612,90.2,429.61,86.294,425.706z" id="XMLID_23_"/>
			</g>
			<g id="XMLID_750_">
				<path d="M256,496c-5.522,0-10-4.478-10-10v-70c0-5.522,4.478-10,10-10s10,4.478,10,10v70&#xD;&#xA;					C266,491.522,261.522,496,256,496z" id="XMLID_22_"/>
			</g>
			<g id="XMLID_748_">
				<path d="M411.563,425.706l-49.498-49.498c-3.905-3.905-3.905-10.237,0-14.143c3.906-3.904,10.236-3.904,14.143,0&#xD;&#xA;					l49.498,49.498c3.905,3.905,3.905,10.237,0,14.143C421.799,429.612,415.47,429.61,411.563,425.706z" id="XMLID_21_"/>
			</g>
			<g id="XMLID_746_">
				<path d="M486,266h-70c-5.522,0-10-4.477-10-10s4.478-10,10-10h70c5.522,0,10,4.477,10,10S491.522,266,486,266z" id="XMLID_20_"/>
			</g>
			<g id="XMLID_744_">
				<path d="M362.065,149.934c-3.905-3.905-3.905-10.237,0-14.142l49.498-49.498c3.907-3.904,10.237-3.905,14.143,0&#xD;&#xA;					s3.905,10.237,0,14.142l-49.498,49.498C372.302,153.838,365.972,153.84,362.065,149.934z" id="XMLID_19_"/>
			</g>
		</g>
	</g>
</g>
<g id="Layer_1">
</g>
</svg>